<?xml version="1.0" encoding="utf-8"?>
<!-- Generator: Adobe Illustrator 19.2.1, SVG Export Plug-In . SVG Version: 6.00 Build 0)  -->
<svg version="1.1" id="Layer_1" xmlns="http://www.w3.org/2000/svg" xmlns:xlink="http://www.w3.org/1999/xlink" x="0px" y="0px"
	 viewBox="0 0 512 512" enable-background="new 0 0 512 512" xml:space="preserve">
<path fill="#D95545" d="M256.4,397.8l-0.1-0.1l-119.9-71.4v-115l0,0l120.4,64.2l0,0l0.1,0.1l0,0V398l0,0l-0.1-0.1L256.4,397.8z"/>
<path fill="#C54C3F" d="M375.7,211.3l-118.8,64.3V398l118.8-71.9L375.7,211.3L375.7,211.3z"/>
<path fill="#AA4438" d="M375.7,211.3v84.2l-63.4,32.6l-55.5-52.4v0L375.7,211.3L375.7,211.3z"/>
<path fill="#F4F3EE" d="M433.3,244.4L375.7,274l-64,32.9l-54.8-31.3v0l118.8-64.3l0,0L433.3,244.4z"/>
<path fill="#F4F3EE" d="M255.2,147.1l120.5,64.3l0,0l54.5-31.3l-54.5-30.7l-63-35.4L255.2,147.1L255.2,147.1L255.2,147.1
	L255.2,147.1z"/>
<path fill="#F4F3EE" d="M78.6,178.3l57.6-29.6l64-32.9l54.8,31.3v0l-118.8,64.3l0,0L78.6,178.3z"/>
<path fill="#D2D1CC" d="M255.1,147l1.8,128.7l-0.1,0l-120.5-64.3L255.1,147z"/>
<path fill="#DCDAD6" d="M256.9,275.7L256.9,275.7L255.1,147l0,0l0.1,0l120.5,64.3L256.9,275.7z"/>
<path fill="#C54C3F" d="M256.9,275.7V350l-91-48.6l9.6-6.1l23.8,13.4L256.9,275.7L256.9,275.7z"/>
<path fill="#D95545" d="M256.8,275.6L256.8,275.6L256.7,398l0.2,0.1L256.8,275.6L256.8,275.6z"/>
<path fill="#F4F3EE" d="M256.8,275.6l-120.5-64.3l0,0l-54.5,31.3l54.5,30.7l63,35.4L256.8,275.6L256.8,275.6L256.8,275.6
	L256.8,275.6z"/>
</svg>
