<?xml version="1.0" encoding="utf-8"?>
<!-- Generator: Adobe Illustrator 19.2.1, SVG Export Plug-In . SVG Version: 6.00 Build 0)  -->
<svg version="1.1" id="Layer_1" xmlns="http://www.w3.org/2000/svg" xmlns:xlink="http://www.w3.org/1999/xlink" x="0px" y="0px"
	 viewBox="0 0 512 512" enable-background="new 0 0 512 512" xml:space="preserve">
<g>
	<g>
		<g>
			<defs>
				<path id="SVGID_1_" d="M445.5,481H66.5C47,481,31,465,31,445.5V66.5C31,47,47,31,66.5,31h378.9C465,31,481,47,481,66.5v378.9
					C481,465,465,481,445.5,481z"/>
			</defs>
			<clipPath id="SVGID_2_">
				<use xlink:href="#SVGID_1_"  overflow="visible"/>
			</clipPath>
			<rect x="31" y="31" clip-path="url(#SVGID_2_)" fill="#40A4C4" width="450" height="450"/>
		</g>
		<g>
			<defs>
				<path id="SVGID_3_" d="M445.5,481H66.5C47,481,31,465,31,445.5V66.5C31,47,47,31,66.5,31h378.9C465,31,481,47,481,66.5v378.9
					C481,465,465,481,445.5,481z"/>
			</defs>
			<clipPath id="SVGID_4_">
				<use xlink:href="#SVGID_3_"  overflow="visible"/>
			</clipPath>
			<path clip-path="url(#SVGID_4_)" fill="#FFFFFF" fill-opacity="0.2" d="M445.5,31H66.5C47,31,31,47,31,66.5v3
				C31,49.9,47,34,66.5,34h378.9c19.5,0,35.5,16,35.5,35.5v-3C481,47,465,31,445.5,31z"/>
		</g>
		<g>
			<defs>
				<path id="SVGID_5_" d="M445.5,481H66.5C47,481,31,465,31,445.5V66.5C31,47,47,31,66.5,31h378.9C465,31,481,47,481,66.5v378.9
					C481,465,465,481,445.5,481z"/>
			</defs>
			<clipPath id="SVGID_6_">
				<use xlink:href="#SVGID_5_"  overflow="visible"/>
			</clipPath>
			<path clip-path="url(#SVGID_6_)" fill="#3E2723" fill-opacity="0.2" d="M445.5,478H66.5C47,478,31,462.1,31,442.5v3
				C31,465,47,481,66.5,481h378.9c19.5,0,35.5-16,35.5-35.5v-3C481,462.1,465,478,445.5,478z"/>
		</g>
	</g>
	
		<radialGradient id="SVGID_7_" cx="43.6429" cy="468.1925" r="603.5178" gradientTransform="matrix(1 0 0 -1 0 512)" gradientUnits="userSpaceOnUse">
		<stop  offset="0" style="stop-color:#FFFFFF;stop-opacity:0.1"/>
		<stop  offset="1" style="stop-color:#FFFFFF;stop-opacity:0"/>
	</radialGradient>
	<path fill="url(#SVGID_7_)" d="M445.5,481H66.5C47,481,31,465,31,445.5V66.5C31,47,47,31,66.5,31h378.9C465,31,481,47,481,66.5
		v378.9C481,465,465,481,445.5,481z"/>
</g>
<g>
	<defs>
		<path id="SVGID_8_" d="M31,31h450v450H31V31z"/>
	</defs>
	<clipPath id="SVGID_9_">
		<use xlink:href="#SVGID_8_"  overflow="visible"/>
	</clipPath>
	<path clip-path="url(#SVGID_9_)" fill="#F4F2ED" d="M431.8,174.4l-57.7,33v130.1l-118.8-64.3l-120.6,64.3V207.5l-54.5-31.3
		l117.4-73.5l58,33l0.7,0.7l-0.7-0.7l54.5-31.3L431.8,174.4z"/>
</g>
<g>
	<defs>
		<path id="SVGID_10_" d="M374.1,135.8v201.8H255.3V135.8H374.1z"/>
	</defs>
	<clipPath id="SVGID_11_">
		<use xlink:href="#SVGID_10_"  overflow="visible"/>
	</clipPath>
	<g clip-path="url(#SVGID_11_)">
		<defs>
			<path id="SVGID_12_" d="M255.2,135.6h119v202.1h-119V135.6z"/>
		</defs>
		<clipPath id="SVGID_13_">
			<use xlink:href="#SVGID_12_"  overflow="visible"/>
		</clipPath>
		<g transform="matrix(1 0 0 1 0 0)" clip-path="url(#SVGID_13_)">
			
				<image overflow="visible" width="564" height="958" xlink:href="5D568CF5.png"  transform="matrix(0.2109 0 0 0.2109 255.2266 135.625)">
			</image>
		</g>
	</g>
</g>
<g>
	<defs>
		<path id="SVGID_14_" d="M255.3,135.8v201.8H134.7V135.8H255.3z"/>
	</defs>
	<clipPath id="SVGID_15_">
		<use xlink:href="#SVGID_14_"  overflow="visible"/>
	</clipPath>
	<g clip-path="url(#SVGID_15_)">
		<defs>
			<path id="SVGID_16_" d="M134.6,135.6h120.9v202.1H134.6V135.6z"/>
		</defs>
		<clipPath id="SVGID_17_">
			<use xlink:href="#SVGID_16_"  overflow="visible"/>
		</clipPath>
		<g clip-path="url(#SVGID_17_)">
			
				<image overflow="visible" width="573" height="958" xlink:href="5D568CF7.png"  transform="matrix(0.2109 0 0 0.2109 134.5703 135.625)">
			</image>
		</g>
	</g>
</g>
<g>
	<defs>
		<path id="SVGID_18_" d="M31,31h450v450H31V31z"/>
	</defs>
	<clipPath id="SVGID_19_">
		<use xlink:href="#SVGID_18_"  overflow="visible"/>
	</clipPath>
	<path clip-path="url(#SVGID_19_)" fill="#D95445" d="M320.7,247.2l53.4-39.7v130.1l-118.8,71.7l-120.6-71.7V207.5l70,44.3l50.6,20
		L320.7,247.2z"/>
</g>
<g>
	<defs>
		<path id="SVGID_20_" d="M374.1,207.5v201.8H255.3V207.5H374.1z"/>
	</defs>
	<clipPath id="SVGID_21_">
		<use xlink:href="#SVGID_20_"  overflow="visible"/>
	</clipPath>
	<g clip-path="url(#SVGID_21_)">
		<defs>
			<path id="SVGID_22_" d="M255.2,207.3h119v202.1h-119V207.3z"/>
		</defs>
		<clipPath id="SVGID_23_">
			<use xlink:href="#SVGID_22_"  overflow="visible"/>
		</clipPath>
		<g transform="matrix(1 0 0 1 0 0)" clip-path="url(#SVGID_23_)">
			
				<image overflow="visible" width="564" height="958" xlink:href="5D568CF2.png"  transform="matrix(0.2109 0 0 0.2109 255.2266 207.3438)">
			</image>
		</g>
	</g>
</g>
<g>
	<defs>
		<path id="SVGID_24_" d="M255.3,207.5v137.1H134.7V207.5H255.3z"/>
	</defs>
	<clipPath id="SVGID_25_">
		<use xlink:href="#SVGID_24_"  overflow="visible"/>
	</clipPath>
	<g clip-path="url(#SVGID_25_)">
		<defs>
			<path id="SVGID_26_" d="M134.6,207.3h120.9v137.3H134.6V207.3z"/>
		</defs>
		<clipPath id="SVGID_27_">
			<use xlink:href="#SVGID_26_"  overflow="visible"/>
		</clipPath>
		<g clip-path="url(#SVGID_27_)">
			
				<image overflow="visible" width="573" height="651" xlink:href="5D568CF3.png"  transform="matrix(0.2109 0 0 0.2109 134.5703 207.3438)">
			</image>
		</g>
	</g>
</g>
<g>
	<defs>
		<path id="SVGID_28_" d="M31,31h450v450H31V31z"/>
	</defs>
	<clipPath id="SVGID_29_">
		<use xlink:href="#SVGID_28_"  overflow="visible"/>
	</clipPath>
	<path clip-path="url(#SVGID_29_)" fill="#F4F2ED" d="M80.2,238.8l54.5-31.3l120.6,64.3l-57.7,33L80.2,238.8z"/>
</g>
<g>
	<defs>
		<path id="SVGID_30_" d="M374.1,207.5v116.7H255.3V207.5H374.1z"/>
	</defs>
	<clipPath id="SVGID_31_">
		<use xlink:href="#SVGID_30_"  overflow="visible"/>
	</clipPath>
	<g clip-path="url(#SVGID_31_)">
		<defs>
			<path id="SVGID_32_" d="M255.2,207.3h119v116.9h-119V207.3z"/>
		</defs>
		<clipPath id="SVGID_33_">
			<use xlink:href="#SVGID_32_"  overflow="visible"/>
		</clipPath>
		<g transform="matrix(1 0 0 1 0 0)" clip-path="url(#SVGID_33_)">
			
				<image overflow="visible" width="564" height="554" xlink:href="5D568CFD.png"  transform="matrix(0.2109 0 0 0.2109 255.2266 207.3438)">
			</image>
		</g>
	</g>
</g>
<g>
	<defs>
		<path id="SVGID_34_" d="M31,31h450v450H31V31z"/>
	</defs>
	<clipPath id="SVGID_35_">
		<use xlink:href="#SVGID_34_"  overflow="visible"/>
	</clipPath>
	<path clip-path="url(#SVGID_35_)" fill="#F4F2ED" d="M374.1,207.5l57.7,33l-121.6,62.6l-54.8-31.3L374.1,207.5z"/>
</g>
</svg>
